# xmcd CD database file
#
# Track frame offsets:
#	150
#	42679
#	59561
#	77837
#	94447
#	113966
#	139585
#	160019
#	180113
#	199578
#	212261
#	229152
#	248325
#	272698
#	293909
#	318928
#
# Disc length: 4576 seconds
#
# Revision: 1
# Processed by: cddbd v1.4PL0 Copyright (c) Steve Scherf et al.
# Submitted via: CDex 1.51
#
DISCID=da11de10
DTITLE=sellani - italian mood
DYEAR=1900
DGENRE=Jazz
TTITLE0=genoan medley
TTITLE1=munasterio a santa chiara
TTITLE2=donna
TTITLE3=e la chiamano estate
TTITLE4=tu,musica divina
TTITLE5=a nostro modo
TTITLE6=marco 38
TTITLE7=jusal
TTITLE8=estate
TTITLE9=lontano
TTITLE10=reginella
TTITLE11=te voglio bene assaie - caruso
TTITLE12=corcovado
TTITLE13=bye bye blackbird
TTITLE14=all of me
TTITLE15=marco38
EXTD=
EXTT0=
EXTT1=
EXTT2=
EXTT3=
EXTT4=
EXTT5=
EXTT6=
EXTT7=
EXTT8=
EXTT9=
EXTT10=
EXTT11=
EXTT12=
EXTT13=
EXTT14=
EXTT15=
PLAYORDER=
